HIERARCHY
ROOT joint_Root
{
	OFFSET 0.0 0.0 0.0
	CHANNELS 6 Xposition Yposition Zposition Zrotation Xrotation Yrotation 
	JOINT Hips
	{
		OFFSET 4.5925 91.4895 -427.239
		CHANNELS 6 Xposition Yposition Zposition Zrotation Xrotation Yrotation 
		JOINT Spine
		{
			OFFSET 15.7357 0.0 0.0
			CHANNELS 6 Xposition Yposition Zposition Zrotation Xrotation Yrotation 
			JOINT Chest
			{
				OFFSET 8.98455 -0.406207 0.0
				CHANNELS 6 Xposition Yposition Zposition Zrotation Xrotation Yrotation 
				JOINT Neck
				{
					OFFSET 16.3773 0.0 0.0
					CHANNELS 6 Xposition Yposition Zposition Zrotation Xrotation Yrotation 
					JOINT Head
					{
						OFFSET 6.45672 0.0 0.0
						CHANNELS 6 Xposition Yposition Zposition Zrotation Xrotation Yrotation 
						End Site
						{
							OFFSET 0.0 0.0 0.0
						}
					}
				}
				JOINT Shoulder_L
				{
					OFFSET 12.9942 -0.242716 4.98039
					CHANNELS 6 Xposition Yposition Zposition Zrotation Xrotation Yrotation 
					JOINT UpperArm_L
					{
						OFFSET 5.34809 0.0 0.0
						CHANNELS 6 Xposition Yposition Zposition Zrotation Xrotation Yrotation 
						JOINT LowerArm_L
						{
							OFFSET 24.3286 1.87007e-05 0.0
							CHANNELS 6 Xposition Yposition Zposition Zrotation Xrotation Yrotation 
							JOINT Hand_L
							{
								OFFSET 22.2916 0.0 0.0
								CHANNELS 6 Xposition Yposition Zposition Zrotation Xrotation Yrotation 
								End Site
								{
									OFFSET 0.0 0.0 0.0
								}
							}
						}
					}
				}
				JOINT Shoulder_R
				{
					OFFSET 12.9945 -0.242716 -4.98039
					CHANNELS 6 Xposition Yposition Zposition Zrotation Xrotation Yrotation 
					JOINT UpperArm_R
					{
						OFFSET -5.34813 0.0 0.0
						CHANNELS 6 Xposition Yposition Zposition Zrotation Xrotation Yrotation 
						JOINT LowerArm_R
						{
							OFFSET -24.3289 0.000322201 0.0
							CHANNELS 6 Xposition Yposition Zposition Zrotation Xrotation Yrotation 
							JOINT Hand_R
							{
								OFFSET -22.2915 -0.000108084 0.0
								CHANNELS 6 Xposition Yposition Zposition Zrotation Xrotation Yrotation 
								End Site
								{
									OFFSET 0.0 0.0 0.0
								}
							}
						}
					}
				}
			}
		}
		JOINT UpperLeg_L
		{
			OFFSET -2.19248 -6.46944 0.0
			CHANNELS 6 Xposition Yposition Zposition Zrotation Xrotation Yrotation 
			JOINT LowerLeg_L
			{
				OFFSET 39.0811 0.0 -1.23785e-05
				CHANNELS 6 Xposition Yposition Zposition Zrotation Xrotation Yrotation 
				JOINT Foot_L
				{
					OFFSET 40.9854 0.0 -1.26872e-05
					CHANNELS 6 Xposition Yposition Zposition Zrotation Xrotation Yrotation 
					JOINT Toes_L
					{
						OFFSET 11.7543 0.0 0.0
						CHANNELS 6 Xposition Yposition Zposition Zrotation Xrotation Yrotation 
						End Site
						{
							OFFSET 0.0 0.0 0.0
						}
					}
				}
			}
		}
		JOINT UpperLeg_R
		{
			OFFSET -2.19251 6.46944 0.0
			CHANNELS 6 Xposition Yposition Zposition Zrotation Xrotation Yrotation 
			JOINT LowerLeg_R
			{
				OFFSET -39.0811 -0.00228153 -0.0401928
				CHANNELS 6 Xposition Yposition Zposition Zrotation Xrotation Yrotation 
				JOINT Foot_R
				{
					OFFSET -40.9854 0.0 0.0
					CHANNELS 6 Xposition Yposition Zposition Zrotation Xrotation Yrotation 
					JOINT Toes_R
					{
						OFFSET -11.7543 0.0 0.0
						CHANNELS 6 Xposition Yposition Zposition Zrotation Xrotation Yrotation 
						End Site
						{
							OFFSET 0.0 0.0 0.0
						}
					}
				}
			}
		}
	}
}
MOTION
Frames:	4
Frame Time:	0.0333333
0.000000 0.000000 0.000000 0.000000 0.000000 -0.000000 130.495000 89.645200 -62.388500 91.537900 0.520146 1.949410 15.735700 0.000005 -0.000001 110.827000 84.100700 -111.247000 8.984550 -0.406207 -0.000000 3.284860 4.206590 -0.960465 16.377300 -0.000001 -0.000001 -0.829848 -1.694240 2.826710 6.456720 -0.000001 -0.000000 -12.320400 -3.700290 3.945540 12.994200 -0.242716 4.980390 -90.702900 2.166520 -72.019100 5.348090 -0.000007 -0.000001 -65.963900 20.887100 -0.393063 24.328600 0.000019 0.000005 4.574660 17.350100 -15.019100 22.291600 -0.000001 0.000005 13.966500 5.187850 3.021320 12.994500 -0.242716 -4.980390 89.071000 8.770000 -83.929600 -5.348130 -0.000001 -0.000004 -59.833600 28.172400 -16.888500 -24.328900 0.000322 -0.000009 1.361730 5.462410 -14.031200 -22.291500 -0.000108 -0.000004 16.530500 5.335750 -0.954009 -2.192480 -6.469440 -0.000000 179.675000 -1.048060 -22.266000 39.081100 -0.000007 -0.000012 -0.114179 0.042063 69.779200 40.985400 -0.000006 -0.000013 4.788980 -9.976910 -59.372800 11.754300 -0.000000 0.000003 -0.005773 -0.068764 -19.375200 -2.192510 6.469440 -0.000001 -178.587000 20.652000 175.739000 -39.081100 -0.002282 -0.040193 0.054550 -0.076131 33.951000 -40.985400 0.000008 0.000006 11.498300 1.192280 -76.091900 -11.754300 -0.000006 -0.000006 -0.007435 -0.083359 -19.967000
0.000000 0.000000 0.000000 0.000000 0.000000 -0.000000 130.702000 90.260900 -60.027800 91.968500 -0.870399 1.046620 15.735700 0.000005 -0.000001 114.395000 84.315000 -115.126000 8.984550 -0.406207 -0.000000 2.627490 4.724840 -1.570130 16.377300 -0.000001 -0.000001 -0.940131 -1.251330 2.623850 6.456720 -0.000001 -0.000000 -11.994400 -3.210240 3.257300 12.994200 -0.242716 4.980390 -90.632300 1.912620 -71.703200 5.348090 -0.000007 -0.000001 -67.784800 22.459300 1.983510 24.328600 0.000019 0.000005 4.608810 18.015400 -14.609300 22.291600 -0.000001 0.000005 13.411500 5.192310 2.911010 12.994500 -0.242716 -4.980390 89.249700 7.627780 -84.365900 -5.348130 -0.000001 -0.000004 -60.610600 27.124800 -19.200600 -24.328900 0.000322 -0.000009 1.344000 5.105240 -14.783400 -22.291500 -0.000108 -0.000004 16.699700 5.330620 -0.803753 -2.192480 -6.469440 -0.000000 179.132000 -0.398725 -24.384400 39.081100 -0.000007 -0.000012 -0.081161 0.040558 63.450400 40.985400 -0.000006 -0.000013 5.262140 -10.860100 -61.547200 11.754300 -0.000000 0.000003 -0.004742 -0.058958 -18.975500 -2.192510 6.469440 -0.000001 179.762000 21.670800 178.020000 -39.081100 -0.002282 -0.040193 0.035791 -0.053855 31.103000 -40.985400 0.000008 0.000006 11.273800 4.532740 -74.983300 -11.754300 -0.000006 -0.000006 -0.011416 -0.113933 -21.216900
0.000000 0.000000 0.000000 0.000000 0.000000 -0.000000 130.882000 90.576300 -57.712100 91.919600 -2.345690 0.173838 15.735700 0.000005 -0.000001 117.013000 84.505300 -117.866000 8.984550 -0.406207 -0.000000 2.070370 5.030390 -1.797030 16.377300 -0.000001 -0.000001 -1.186590 -0.971184 2.405910 6.456720 -0.000001 -0.000000 -11.832900 -2.722730 2.343370 12.994200 -0.242716 4.980390 -90.611400 1.841710 -71.631300 5.348090 -0.000007 -0.000001 -69.987600 23.475300 4.081510 24.328600 0.000019 0.000005 4.444240 18.988100 -13.435300 22.291600 -0.000001 0.000005 12.748300 5.191590 2.929130 12.994500 -0.242716 -4.980390 89.355300 6.913820 -84.659400 -5.348130 -0.000001 -0.000004 -60.442300 27.131500 -21.576000 -24.328900 0.000322 -0.000009 1.037230 3.425760 -16.885400 -22.291500 -0.000108 -0.000004 16.639100 5.345650 -1.248120 -2.192480 -6.469440 -0.000000 179.327000 -0.831971 -25.817300 39.081100 -0.000007 -0.000012 -0.038247 0.026607 55.179000 40.985400 -0.000006 -0.000013 4.594560 -9.717260 -62.592800 11.754300 -0.000000 0.000003 -0.005368 -0.064991 -19.221400 -2.192510 6.469440 -0.000001 178.716000 22.326300 179.573000 -39.081100 -0.002282 -0.040193 0.027628 -0.043058 29.464200 -40.985400 0.000008 0.000006 11.362900 7.304320 -74.031800 -11.754300 -0.000006 -0.000006 -0.017313 -0.151920 -22.775400
0.000000 0.000000 0.000000 0.000000 0.000000 -0.000000 131.070000 90.626600 -55.333000 91.607000 -3.778990 -0.658844 15.735700 0.000005 -0.000001 118.509000 84.685400 -119.374000 8.984550 -0.406207 -0.000000 1.620430 5.116950 -1.802810 16.377300 -0.000001 -0.000001 -1.514790 -0.852231 2.253760 6.456720 -0.000001 -0.000000 -11.840000 -2.285820 1.410060 12.994200 -0.242716 4.980390 -90.594100 1.805950 -71.788000 5.348090 -0.000007 -0.000001 -72.466300 23.912700 5.678440 24.328600 0.000019 0.000005 4.134680 20.502500 -11.662700 22.291600 -0.000001 0.000005 11.645500 5.190410 2.958950 12.994500 -0.242716 -4.980390 89.409500 6.618340 -84.890300 -5.348130 -0.000001 -0.000004 -59.431800 27.799800 -23.641000 -24.328900 0.000322 -0.000009 0.641747 1.716350 -20.562300 -22.291500 -0.000108 -0.000004 16.565000 5.370050 -1.988300 -2.192480 -6.469440 -0.000000 179.745000 -2.476650 -26.709500 39.081100 -0.000007 -0.000012 -0.011262 0.010984 45.723700 40.985400 -0.000006 -0.000013 2.719290 -7.061820 -61.934700 11.754300 -0.000000 0.000003 -0.005287 -0.064225 -19.190100 -2.192510 6.469440 -0.000001 177.755000 23.245100 -179.071000 -39.081100 -0.002282 -0.040193 0.018628 -0.028217 28.503100 -40.985400 0.000008 0.000006 11.378800 10.165100 -73.684700 -11.754300 -0.000006 -0.000006 -0.022425 -0.180366 -23.947100
